<svg xmlns="http://www.w3.org/2000/svg" xmlns:xlink="http://www.w3.org/1999/xlink" x="0" y="0" width="702" height="290" style="
        width:702px;
        height:290px;
        background: #FFF;
        fill: none;
">
        <svg xmlns="http://www.w3.org/2000/svg"/>

        <svg xmlns="http://www.w3.org/2000/svg" class="role-diagram-draw-area" style="overflow: visible;"><g class="shapes-region" style="stroke: black; fill: none;"><g class="composite-shape" data-amt="diagram/shapes/plot" transform="matrix(1,0,0,1,37,10)"><g><g><g class="test-xgi"><line x1="70" y1="0" x2="70" y2="270" fill="none" stroke="#c3c3c3" stroke-width="0.5"/><line x1="150" y1="0" x2="150" y2="270" fill="none" stroke="#c3c3c3" stroke-width="0.5"/><line x1="230" y1="0" x2="230" y2="270" fill="none" stroke="#c3c3c3" stroke-width="0.5"/><line x1="310" y1="0" x2="310" y2="270" fill="none" stroke="#c3c3c3" stroke-width="0.5"/><line x1="390" y1="0" x2="390" y2="270" fill="none" stroke="#c3c3c3" stroke-width="0.5"/><line x1="470" y1="0" x2="470" y2="270" fill="none" stroke="#c3c3c3" stroke-width="0.5"/><line x1="550" y1="0" x2="550" y2="270" fill="none" stroke="#c3c3c3" stroke-width="0.5"/></g><g class="test-ygi"><line x1="0" y1="210" x2="620" y2="210" fill="none" stroke="#c3c3c3" stroke-width="0.5"/><line x1="0" y1="130" x2="620" y2="130" fill="none" stroke="#c3c3c3" stroke-width="0.5"/><line x1="0" y1="50" x2="620" y2="50" fill="none" stroke="#c3c3c3" stroke-width="0.5"/></g></g><g><g class="test-xti" style="font-family: Asana-Math, Asana;"><line x1="0" y1="130" x2="616" y2="130" fill="none" stroke="rgb(50,50,50)" stroke-opacity="1" stroke-width="1"/><line x1="70" y1="126" x2="70" y2="134" fill="none" stroke="rgb(50,50,50)" stroke-opacity="1" stroke-width="1"/><line x1="150" y1="126" x2="150" y2="134" fill="none" stroke="rgb(50,50,50)" stroke-opacity="1" stroke-width="1"/><line x1="230" y1="126" x2="230" y2="134" fill="none" stroke="rgb(50,50,50)" stroke-opacity="1" stroke-width="1"/><line x1="390" y1="126" x2="390" y2="134" fill="none" stroke="rgb(50,50,50)" stroke-opacity="1" stroke-width="1"/><line x1="470" y1="126" x2="470" y2="134" fill="none" stroke="rgb(50,50,50)" stroke-opacity="1" stroke-width="1"/><line x1="550" y1="126" x2="550" y2="134" fill="none" stroke="rgb(50,50,50)" stroke-opacity="1" stroke-width="1"/><path d="M611,126.4 L619,130 L611,133.6 Z" stroke="none" stroke-width="1" fill="rgb(50,50,50)" fill-opacity="1"/></g><g class="test-yti" style="font-family: Asana-Math, Asana;"><line x1="310" y1="4" x2="310" y2="270" fill="none" stroke="rgb(50,50,50)" stroke-opacity="1" stroke-width="1"/><line x1="306" y1="210" x2="314" y2="210" fill="none" stroke="rgb(50,50,50)" stroke-opacity="1" stroke-width="1"/><line x1="306" y1="50" x2="314" y2="50" fill="none" stroke="rgb(50,50,50)" stroke-opacity="1" stroke-width="1"/><path d="M306.4,9 L310,1 L313.6,9 Z" stroke="none" stroke-width="1" fill="rgb(50,50,50)" fill-opacity="1"/></g><g class="test-plot-expression"><defs><clipPath id="cp8wc7aafaydg-full-view"><rect x="1" y="1" width="618" height="268"/></clipPath></defs><g clip-path="url(#cp8wc7aafaydg-full-view)"><path d=" M0.00,101.86 L0.56,101.77 L1.13,101.68 L1.69,101.59 L2.26,101.50 L2.82,101.41 L3.38,101.32 L3.95,101.22 L4.51,101.13 L5.08,101.04 L5.64,100.94 L6.21,100.85 L6.77,100.75 L7.33,100.65 L7.90,100.56 L8.46,100.46 L9.03,100.36 L9.59,100.26 L10.15,100.16 L10.72,100.06 L11.28,99.96 L11.85,99.85 L12.41,99.75 L12.98,99.64 L13.54,99.54 L14.10,99.43 L14.67,99.33 L15.23,99.22 L15.80,99.11 L16.36,99.00 L16.92,98.89 L17.49,98.78 L18.05,98.67 L18.62,98.55 L19.18,98.44 L19.75,98.33 L20.31,98.21 L20.87,98.09 L21.44,97.98 L22.00,97.86 L22.57,97.74 L23.13,97.62 L23.69,97.49 L24.26,97.37 L24.82,97.25 L25.39,97.12 L25.95,97.00 L26.52,96.87 L27.08,96.74 L27.64,96.61 L28.21,96.48 L28.77,96.35 L29.34,96.22 L29.90,96.08 L30.46,95.95 L31.03,95.81 L31.59,95.68 L32.16,95.54 L32.72,95.40 L33.28,95.26 L33.85,95.11 L34.41,94.97 L34.98,94.82 L35.54,94.68 L36.11,94.53 L36.67,94.38 L37.23,94.23 L37.80,94.08 L38.36,93.92 L38.93,93.77 L39.49,93.61 L40.05,93.45 L40.62,93.29 L41.18,93.13 L41.75,92.97 L42.31,92.80 L42.88,92.64 L43.44,92.47 L44.00,92.30 L44.57,92.13 L45.13,91.95 L45.70,91.78 L46.26,91.60 L46.82,91.42 L47.39,91.24 L47.95,91.06 L48.52,90.88 L49.08,90.69 L49.65,90.50 L50.21,90.31 L50.77,90.12 L51.34,89.92 L51.90,89.73 L52.47,89.53 L53.03,89.33 L53.59,89.12 L54.16,88.92 L54.72,88.71 L55.29,88.50 L55.85,88.28 L56.41,88.07 L56.98,87.85 L57.54,87.63 L58.11,87.41 L58.67,87.18 L59.24,86.95 L59.80,86.72 L60.36,86.49 L60.93,86.25 L61.49,86.01 L62.06,85.77 L62.62,85.52 L63.18,85.27 L63.75,85.02 L64.31,84.77 L64.88,84.51 L65.44,84.25 L66.01,83.98 L66.57,83.71 L67.13,83.44 L67.70,83.16 L68.26,82.89 L68.83,82.60 L69.39,82.31 L69.95,82.02 L70.52,81.73 L71.08,81.43 L71.65,81.13 L72.21,80.82 L72.78,80.51 L73.34,80.19 L73.90,79.87 L74.47,79.54 L75.03,79.21 L75.60,78.88 L76.16,78.54 L76.72,78.19 L77.29,77.84 L77.85,77.49 L78.42,77.12 L78.98,76.76 L79.55,76.39 L80.11,76.01 L80.67,75.62 L81.24,75.23 L81.80,74.83 L82.37,74.43 L82.93,74.02 L83.49,73.60 L84.06,73.18 L84.62,72.75 L85.19,72.31 L85.75,71.87 L86.31,71.41 L86.88,70.95 L87.44,70.48 L88.01,70.00 L88.57,69.52 L89.14,69.02 L89.70,68.52 L90.26,68.00 L90.83,67.48 L91.39,66.95 L91.96,66.40 L92.52,65.85 L93.08,65.29 L93.65,64.71 L94.21,64.12 L94.78,63.52 L95.34,62.91 L95.91,62.29 L96.47,61.65 L97.03,61.00 L97.60,60.34 L98.16,59.66 L98.73,58.97 L99.29,58.26 L99.85,57.54 L100.42,56.80 L100.98,56.05 L101.55,55.27 L102.11,54.48 L102.68,53.67 L103.24,52.84 L103.80,51.99 L104.37,51.12 L104.93,50.23 L105.50,49.32 L106.06,48.38 L106.62,47.42 L107.19,46.43 L107.75,45.42 L108.32,44.38 L108.88,43.32 L109.44,42.22 L110.01,41.09 L110.57,39.93 L111.14,38.74 L111.70,37.51 L112.27,36.25 L112.83,34.95 L113.39,33.61 L113.96,32.23 L114.52,30.80 L115.09,29.33 L115.65,27.81 L116.21,26.24 L116.78,24.62 L117.34,22.94 L117.91,21.20 L118.47,19.40 L119.04,17.54 L119.60,15.61 L120.16,13.60 L120.73,11.52 L121.29,9.36 L121.86,7.11 L122.42,4.77 L122.98,2.33 L123.55,-0.21 L124.11,-2.86 L124.68,-5.63 L125.24,-8.53 L125.81,-11.56 L126.37,-14.73 L126.93,-18.06 L127.50,-21.55 L128.06,-25.22 L128.63,-29.09 L129.19,-33.16 L129.75,-37.46 L130.32,-42.01 L130.88,-46.82 L131.45,-51.93 L132.01,-57.35 L132.58,-63.13 L133.14,-69.29 L133.70,-75.87 L134.27,-82.93 L134.83,-90.51 L135.40,-98.68 L135.96,-107.50 L136.52,-117.06 L137.09,-127.45 L137.65,-138.79 L138.22,-151.21 L138.78,-164.88 L139.34,-180.00 L139.91,-196.81 L140.47,-215.60 L141.04,-236.76 L141.60,-260.76 L142.17,-270.00 L142.73,-270.00 L143.29,-270.00 L143.86,-270.00 L144.42,-270.00 L144.99,-270.00 L145.55,-270.00 L146.11,-270.00 L146.68,-270.00 L147.24,-270.00 L147.81,-270.00 L148.37,-270.00 L148.94,-270.00 L149.50,-270.00 L150.06,-270.00 M150.06,540.00 L150.06,540.00 L150.63,540.00 M150.63,540.00 L150.63,540.00 L151.19,540.00 L151.76,540.00 L152.32,540.00 L152.88,540.00 L153.45,540.00 L154.01,540.00 L154.58,540.00 L155.14,540.00 L155.71,540.00 L156.27,540.00 L156.83,540.00 L157.40,540.00 L157.96,521.66 L158.53,495.05 L159.09,471.74 L159.65,451.15 L160.22,432.83 L160.78,416.43 L161.35,401.65 L161.91,388.28 L162.47,376.11 L163.04,364.99 L163.60,354.79 L164.17,345.41 L164.73,336.74 L165.30,328.71 L165.86,321.25 L166.42,314.30 L166.99,307.81 L167.55,301.73 L168.12,296.03 L168.68,290.68 L169.24,285.64 L169.81,280.88 L170.37,276.39 L170.94,272.14 L171.50,268.11 L172.07,264.28 L172.63,260.65 L173.19,257.19 L173.76,253.89 L174.32,250.74 L174.89,247.74 L175.45,244.87 L176.01,242.12 L176.58,239.49 L177.14,236.97 L177.71,234.55 L178.27,232.22 L178.84,229.98 L179.40,227.83 L179.96,225.76 L180.53,223.77 L181.09,221.84 L181.66,219.99 L182.22,218.20 L182.78,216.47 L183.35,214.79 L183.91,213.17 L184.48,211.61 L185.04,210.09 L185.61,208.62 L186.17,207.20 L186.73,205.82 L187.30,204.48 L187.86,203.18 L188.43,201.91 L188.99,200.68 L189.55,199.49 L190.12,198.33 L190.68,197.20 L191.25,196.10 L191.81,195.03 L192.37,193.99 L192.94,192.97 L193.50,191.98 L194.07,191.02 L194.63,190.08 L195.20,189.16 L195.76,188.26 L196.32,187.39 L196.89,186.53 L197.45,185.70 L198.02,184.88 L198.58,184.08 L199.14,183.30 L199.71,182.54 L200.27,181.79 L200.84,181.06 L201.40,180.34 L201.97,179.64 L202.53,178.95 L203.09,178.28 L203.66,177.62 L204.22,176.98 L204.79,176.34 L205.35,175.72 L205.91,175.11 L206.48,174.52 L207.04,173.93 L207.61,173.35 L208.17,172.79 L208.74,172.23 L209.30,171.69 L209.86,171.15 L210.43,170.63 L210.99,170.11 L211.56,169.60 L212.12,169.10 L212.68,168.61 L213.25,168.13 L213.81,167.66 L214.38,167.19 L214.94,166.73 L215.51,166.28 L216.07,165.83 L216.63,165.39 L217.20,164.96 L217.76,164.54 L218.33,164.12 L218.89,163.71 L219.45,163.30 L220.02,162.90 L220.58,162.51 L221.15,162.12 L221.71,161.74 L222.27,161.36 L222.84,160.99 L223.40,160.62 L223.97,160.26 L224.53,159.90 L225.10,159.55 L225.66,159.20 L226.22,158.85 L226.79,158.52 L227.35,158.18 L227.92,157.85 L228.48,157.53 L229.04,157.20 L229.61,156.88 L230.17,156.57 L230.74,156.26 L231.30,155.95 L231.87,155.65 L232.43,155.35 L232.99,155.06 L233.56,154.76 L234.12,154.47 L234.69,154.19 L235.25,153.91 L235.81,153.63 L236.38,153.35 L236.94,153.08 L237.51,152.80 L238.07,152.54 L238.64,152.27 L239.20,152.01 L239.76,151.75 L240.33,151.49 L240.89,151.24 L241.46,150.99 L242.02,150.74 L242.58,150.49 L243.15,150.25 L243.71,150.01 L244.28,149.77 L244.84,149.53 L245.40,149.29 L245.97,149.06 L246.53,148.83 L247.10,148.60 L247.66,148.37 L248.23,148.15 L248.79,147.93 L249.35,147.71 L249.92,147.49 L250.48,147.27 L251.05,147.05 L251.61,146.84 L252.17,146.63 L252.74,146.42 L253.30,146.21 L253.87,146.00 L254.43,145.80 L255.00,145.59 L255.56,145.39 L256.12,145.19 L256.69,144.99 L257.25,144.79 L257.82,144.60 L258.38,144.40 L258.94,144.21 L259.51,144.02 L260.07,143.83 L260.64,143.64 L261.20,143.45 L261.77,143.26 L262.33,143.08 L262.89,142.89 L263.46,142.71 L264.02,142.53 L264.59,142.35 L265.15,142.17 L265.71,141.99 L266.28,141.81 L266.84,141.64 L267.41,141.46 L267.97,141.29 L268.54,141.11 L269.10,140.94 L269.66,140.77 L270.23,140.60 L270.79,140.43 L271.36,140.26 L271.92,140.09 L272.48,139.92 L273.05,139.76 L273.61,139.59 L274.18,139.43 L274.74,139.26 L275.30,139.10 L275.87,138.94 L276.43,138.78 L277.00,138.62 L277.56,138.46 L278.13,138.30 L278.69,138.14 L279.25,137.98 L279.82,137.82 L280.38,137.67 L280.95,137.51 L281.51,137.36 L282.07,137.20 L282.64,137.05 L283.20,136.89 L283.77,136.74 L284.33,136.59 L284.90,136.43 L285.46,136.28 L286.02,136.13 L286.59,135.98 L287.15,135.83 L287.72,135.68 L288.28,135.53 L288.84,135.38 L289.41,135.23 L289.97,135.09 L290.54,134.94 L291.10,134.79 L291.67,134.64 L292.23,134.50 L292.79,134.35 L293.36,134.21 L293.92,134.06 L294.49,133.92 L295.05,133.77 L295.61,133.63 L296.18,133.48 L296.74,133.34 L297.31,133.19 L297.87,133.05 L298.43,132.91 L299.00,132.76 L299.56,132.62 L300.13,132.48 L300.69,132.34 L301.26,132.19 L301.82,132.05 L302.38,131.91 L302.95,131.77 L303.51,131.62 L304.08,131.48 L304.64,131.34 L305.20,131.20 L305.77,131.06 L306.33,130.92 L306.90,130.78 L307.46,130.63 L308.03,130.49 L308.59,130.35 L309.15,130.21 L309.72,130.07 L310.28,129.93 L310.85,129.79 L311.41,129.65 L311.97,129.51 L312.54,129.37 L313.10,129.22 L313.67,129.08 L314.23,128.94 L314.80,128.80 L315.36,128.66 L315.92,128.52 L316.49,128.38 L317.05,128.23 L317.62,128.09 L318.18,127.95 L318.74,127.81 L319.31,127.66 L319.87,127.52 L320.44,127.38 L321.00,127.24 L321.57,127.09 L322.13,126.95 L322.69,126.81 L323.26,126.66 L323.82,126.52 L324.39,126.37 L324.95,126.23 L325.51,126.08 L326.08,125.94 L326.64,125.79 L327.21,125.65 L327.77,125.50 L328.33,125.36 L328.90,125.21 L329.46,125.06 L330.03,124.91 L330.59,124.77 L331.16,124.62 L331.72,124.47 L332.28,124.32 L332.85,124.17 L333.41,124.02 L333.98,123.87 L334.54,123.72 L335.10,123.57 L335.67,123.41 L336.23,123.26 L336.80,123.11 L337.36,122.95 L337.93,122.80 L338.49,122.64 L339.05,122.49 L339.62,122.33 L340.18,122.18 L340.75,122.02 L341.31,121.86 L341.87,121.70 L342.44,121.54 L343.00,121.38 L343.57,121.22 L344.13,121.06 L344.70,120.90 L345.26,120.74 L345.82,120.57 L346.39,120.41 L346.95,120.24 L347.52,120.08 L348.08,119.91 L348.64,119.74 L349.21,119.57 L349.77,119.40 L350.34,119.23 L350.90,119.06 L351.46,118.89 L352.03,118.71 L352.59,118.54 L353.16,118.36 L353.72,118.19 L354.29,118.01 L354.85,117.83 L355.41,117.65 L355.98,117.47 L356.54,117.29 L357.11,117.11 L357.67,116.92 L358.23,116.74 L358.80,116.55 L359.36,116.36 L359.93,116.17 L360.49,115.98 L361.06,115.79 L361.62,115.60 L362.18,115.40 L362.75,115.21 L363.31,115.01 L363.88,114.81 L364.44,114.61 L365.00,114.41 L365.57,114.20 L366.13,114.00 L366.70,113.79 L367.26,113.58 L367.83,113.37 L368.39,113.16 L368.95,112.95 L369.52,112.73 L370.08,112.51 L370.65,112.29 L371.21,112.07 L371.77,111.85 L372.34,111.63 L372.90,111.40 L373.47,111.17 L374.03,110.94 L374.60,110.71 L375.16,110.47 L375.72,110.23 L376.29,109.99 L376.85,109.75 L377.42,109.51 L377.98,109.26 L378.54,109.01 L379.11,108.76 L379.67,108.51 L380.24,108.25 L380.80,107.99 L381.36,107.73 L381.93,107.46 L382.49,107.20 L383.06,106.92 L383.62,106.65 L384.19,106.37 L384.75,106.09 L385.31,105.81 L385.88,105.53 L386.44,105.24 L387.01,104.94 L387.57,104.65 L388.13,104.35 L388.70,104.05 L389.26,103.74 L389.83,103.43 L390.39,103.12 L390.96,102.80 L391.52,102.47 L392.08,102.15 L392.65,101.82 L393.21,101.48 L393.78,101.15 L394.34,100.80 L394.90,100.45 L395.47,100.10 L396.03,99.74 L396.60,99.38 L397.16,99.01 L397.73,98.64 L398.29,98.26 L398.85,97.88 L399.42,97.49 L399.98,97.10 L400.55,96.70 L401.11,96.29 L401.67,95.88 L402.24,95.46 L402.80,95.04 L403.37,94.61 L403.93,94.17 L404.49,93.72 L405.06,93.27 L405.62,92.81 L406.19,92.34 L406.75,91.87 L407.32,91.39 L407.88,90.90 L408.44,90.40 L409.01,89.89 L409.57,89.37 L410.14,88.85 L410.70,88.31 L411.26,87.77 L411.83,87.21 L412.39,86.65 L412.96,86.07 L413.52,85.48 L414.09,84.89 L414.65,84.28 L415.21,83.66 L415.78,83.02 L416.34,82.38 L416.91,81.72 L417.47,81.05 L418.03,80.36 L418.60,79.66 L419.16,78.94 L419.73,78.21 L420.29,77.46 L420.86,76.70 L421.42,75.92 L421.98,75.12 L422.55,74.30 L423.11,73.47 L423.68,72.61 L424.24,71.74 L424.80,70.84 L425.37,69.92 L425.93,68.98 L426.50,68.02 L427.06,67.03 L427.63,66.01 L428.19,64.97 L428.75,63.90 L429.32,62.80 L429.88,61.67 L430.45,60.51 L431.01,59.32 L431.57,58.09 L432.14,56.82 L432.70,55.52 L433.27,54.18 L433.83,52.80 L434.39,51.38 L434.96,49.91 L435.52,48.39 L436.09,46.83 L436.65,45.21 L437.22,43.53 L437.78,41.80 L438.34,40.01 L438.91,38.16 L439.47,36.23 L440.04,34.24 L440.60,32.17 L441.16,30.02 L441.73,27.78 L442.29,25.45 L442.86,23.03 L443.42,20.51 L443.99,17.88 L444.55,15.13 L445.11,12.26 L445.68,9.26 L446.24,6.11 L446.81,2.81 L447.37,-0.65 L447.93,-4.28 L448.50,-8.11 L449.06,-12.14 L449.63,-16.39 L450.19,-20.88 L450.76,-25.64 L451.32,-30.68 L451.88,-36.03 L452.45,-41.73 L453.01,-47.81 L453.58,-54.30 L454.14,-61.25 L454.70,-68.71 L455.27,-76.74 L455.83,-85.41 L456.40,-94.79 L456.96,-104.99 L457.53,-116.11 L458.09,-128.28 L458.65,-141.65 L459.22,-156.43 L459.78,-172.83 L460.35,-191.15 L460.91,-211.74 L461.47,-235.05 L462.04,-261.66 L462.60,-270.00 L463.17,-270.00 L463.73,-270.00 L464.29,-270.00 L464.86,-270.00 L465.42,-270.00 L465.99,-270.00 L466.55,-270.00 L467.12,-270.00 L467.68,-270.00 L468.24,-270.00 L468.81,-270.00 L469.37,-270.00 L469.94,-270.00 L470.50,-270.00 M470.50,540.00 L470.50,540.00 L471.06,540.00 M471.06,540.00 L471.06,540.00 L471.63,540.00 L472.19,540.00 L472.76,540.00 L473.32,540.00 L473.89,540.00 L474.45,540.00 L475.01,540.00 L475.58,540.00 L476.14,540.00 L476.71,540.00 L477.27,540.00 L477.83,540.00 L478.40,520.76 L478.96,496.76 L479.53,475.60 L480.09,456.81 L480.66,440.00 L481.22,424.88 L481.78,411.21 L482.35,398.79 L482.91,387.45 L483.48,377.06 L484.04,367.50 L484.60,358.68 L485.17,350.51 L485.73,342.93 L486.30,335.87 L486.86,329.29 L487.42,323.13 L487.99,317.35 L488.55,311.93 L489.12,306.82 L489.68,302.01 L490.25,297.46 L490.81,293.16 L491.37,289.09 L491.94,285.22 L492.50,281.55 L493.07,278.06 L493.63,274.73 L494.19,271.56 L494.76,268.53 L495.32,265.63 L495.89,262.86 L496.45,260.21 L497.02,257.67 L497.58,255.23 L498.14,252.89 L498.71,250.64 L499.27,248.48 L499.84,246.40 L500.40,244.39 L500.96,242.46 L501.53,240.60 L502.09,238.80 L502.66,237.06 L503.22,235.38 L503.79,233.76 L504.35,232.19 L504.91,230.67 L505.48,229.20 L506.04,227.77 L506.61,226.39 L507.17,225.05 L507.73,223.75 L508.30,222.49 L508.86,221.26 L509.43,220.07 L509.99,218.91 L510.56,217.78 L511.12,216.68 L511.68,215.62 L512.25,214.58 L512.81,213.57 L513.38,212.58 L513.94,211.62 L514.50,210.68 L515.07,209.77 L515.63,208.88 L516.20,208.01 L516.76,207.16 L517.32,206.33 L517.89,205.52 L518.45,204.73 L519.02,203.95 L519.58,203.20 L520.15,202.46 L520.71,201.74 L521.27,201.03 L521.84,200.34 L522.40,199.66 L522.97,199.00 L523.53,198.35 L524.09,197.71 L524.66,197.09 L525.22,196.48 L525.79,195.88 L526.35,195.29 L526.92,194.71 L527.48,194.15 L528.04,193.60 L528.61,193.05 L529.17,192.52 L529.74,192.00 L530.30,191.48 L530.86,190.98 L531.43,190.48 L531.99,190.00 L532.56,189.52 L533.12,189.05 L533.69,188.59 L534.25,188.13 L534.81,187.69 L535.38,187.25 L535.94,186.82 L536.51,186.40 L537.07,185.98 L537.63,185.57 L538.20,185.17 L538.76,184.77 L539.33,184.38 L539.89,183.99 L540.45,183.61 L541.02,183.24 L541.58,182.88 L542.15,182.51 L542.71,182.16 L543.28,181.81 L543.84,181.46 L544.40,181.12 L544.97,180.79 L545.53,180.46 L546.10,180.13 L546.66,179.81 L547.22,179.49 L547.79,179.18 L548.35,178.87 L548.92,178.57 L549.48,178.27 L550.05,177.98 L550.61,177.69 L551.17,177.40 L551.74,177.11 L552.30,176.84 L552.87,176.56 L553.43,176.29 L553.99,176.02 L554.56,175.75 L555.12,175.49 L555.69,175.23 L556.25,174.98 L556.82,174.73 L557.38,174.48 L557.94,174.23 L558.51,173.99 L559.07,173.75 L559.64,173.51 L560.20,173.28 L560.76,173.05 L561.33,172.82 L561.89,172.59 L562.46,172.37 L563.02,172.15 L563.59,171.93 L564.15,171.72 L564.71,171.50 L565.28,171.29 L565.84,171.08 L566.41,170.88 L566.97,170.67 L567.53,170.47 L568.10,170.27 L568.66,170.08 L569.23,169.88 L569.79,169.69 L570.35,169.50 L570.92,169.31 L571.48,169.12 L572.05,168.94 L572.61,168.76 L573.18,168.58 L573.74,168.40 L574.30,168.22 L574.87,168.05 L575.43,167.87 L576.00,167.70 L576.56,167.53 L577.12,167.36 L577.69,167.20 L578.25,167.03 L578.82,166.87 L579.38,166.71 L579.95,166.55 L580.51,166.39 L581.07,166.23 L581.64,166.08 L582.20,165.92 L582.77,165.77 L583.33,165.62 L583.89,165.47 L584.46,165.32 L585.02,165.18 L585.59,165.03 L586.15,164.89 L586.72,164.74 L587.28,164.60 L587.84,164.46 L588.41,164.32 L588.97,164.19 L589.54,164.05 L590.10,163.92 L590.66,163.78 L591.23,163.65 L591.79,163.52 L592.36,163.39 L592.92,163.26 L593.48,163.13 L594.05,163.00 L594.61,162.88 L595.18,162.75 L595.74,162.63 L596.31,162.51 L596.87,162.38 L597.43,162.26 L598.00,162.14 L598.56,162.02 L599.13,161.91 L599.69,161.79 L600.25,161.67 L600.82,161.56 L601.38,161.45 L601.95,161.33 L602.51,161.22 L603.08,161.11 L603.64,161.00 L604.20,160.89 L604.77,160.78 L605.33,160.67 L605.90,160.57 L606.46,160.46 L607.02,160.36 L607.59,160.25 L608.15,160.15 L608.72,160.04 L609.28,159.94 L609.85,159.84 L610.41,159.74 L610.97,159.64 L611.54,159.54 L612.10,159.44 L612.67,159.35 L613.23,159.25 L613.79,159.15 L614.36,159.06 L614.92,158.96 L615.49,158.87 L616.05,158.78 L616.62,158.68 L617.18,158.59 L617.74,158.50 L618.31,158.41 L618.87,158.32 L619.44,158.23 L620.00,158.14" style="stroke-width: 2; stroke: rgb(74, 144, 226); stroke-opacity: 0.8;"/></g></g><g class="test-xtl" style="font-family: &quot;Open Sans&quot;, verdana, arial, sans-serif;"><text text-anchor="middle" font-size="11" dominant-baseline="hanging" stroke="none" fill="rgb(50,50,50)" fill-opacity="1" x="66.865" y="137">-3</text><text text-anchor="middle" font-size="11" dominant-baseline="hanging" stroke="none" fill="rgb(50,50,50)" fill-opacity="1" x="146.865" y="137">-2</text><text text-anchor="middle" font-size="11" dominant-baseline="hanging" stroke="none" fill="rgb(50,50,50)" fill-opacity="1" x="226.865" y="137">-1</text><text text-anchor="middle" font-size="11" dominant-baseline="hanging" stroke="none" fill="rgb(50,50,50)" fill-opacity="1" x="390" y="137">1</text><text text-anchor="middle" font-size="11" dominant-baseline="hanging" stroke="none" fill="rgb(50,50,50)" fill-opacity="1" x="470" y="137">2</text><text text-anchor="middle" font-size="11" dominant-baseline="hanging" stroke="none" fill="rgb(50,50,50)" fill-opacity="1" x="550" y="137">3</text><text text-anchor="middle" font-size="11" dominant-baseline="hanging" stroke="none" fill="rgb(50,50,50)" fill-opacity="1" x="302" y="135">0</text></g><g class="test-ytl" style="font-family: &quot;Open Sans&quot;, verdana, arial, sans-serif;"><text text-anchor="end" dominant-baseline="middle" font-size="11" stroke="none" fill="rgb(50,50,50)" fill-opacity="1" x="302" y="210">-1</text><text text-anchor="end" dominant-baseline="middle" font-size="11" stroke="none" fill="rgb(50,50,50)" fill-opacity="1" x="302" y="50">1</text></g><rect class="real" x="1" y="1" width="618" height="268" style="fill: transparent; stroke: none;"/></g></g></g><g/></g><g/><g/><g/></svg>
        <svg xmlns="http://www.w3.org/2000/svg" xmlns:xlink="http://www.w3.org/1999/xlink" width="700" height="288" style="width:700px;height:288px;font-family:Asana-Math, Asana;background:#FFF;"><g><g><g><g transform="matrix(1,0,0,1,11,38.390625)"><path transform="matrix(0.017,0,0,-0.017,0,0)" d="M345 437L329 437L350 549C366 635 394 673 440 673C470 673 497 658 512 634L522 638C527 654 537 685 545 705L550 720C534 727 503 733 480 733C469 733 453 730 445 726C421 715 339 654 316 630C294 608 282 578 271 521L256 442C215 422 195 414 170 405L165 383L246 383L237 327C207 132 170 -54 148 -123C130 -182 100 -213 64 -213C41 -213 30 -206 12 -184L-2 -188C-6 -211 -20 -259 -25 -268C-16 -273 -1 -276 10 -276C51 -276 105 -245 144 -198C215 -114 235 -18 319 383L423 383C427 402 434 425 440 439L436 446C407 439 408 437 345 437Z" stroke="rgb(74,144,226)" stroke-opacity="1" stroke-width="8" fill="rgb(74,144,226)" fill-opacity="1"></path></g></g><g><g transform="matrix(1,0,0,1,20.359375,38.390625)"><path transform="matrix(0.017,0,0,-0.017,0,0)" d="M146 266C146 526 243 632 301 700L282 726C225 675 60 542 60 266C60 159 85 58 133 -32C168 -99 200 -138 282 -215L301 -194C255 -137 146 -15 146 266Z" stroke="rgb(74,144,226)" stroke-opacity="1" stroke-width="8" fill="rgb(74,144,226)" fill-opacity="1"></path></g></g><g><g transform="matrix(1,0,0,1,26.015625,38.390625)"><path transform="matrix(0.017,0,0,-0.017,0,0)" d="M9 1C24 -7 40 -11 52 -11C85 -11 124 18 155 65L231 182L242 113C255 28 278 -11 314 -11C336 -11 368 6 400 35L449 79L440 98C404 68 379 53 363 53C348 53 335 63 325 83C316 102 305 139 300 168L282 269L317 318C364 383 391 406 422 406C438 406 450 398 455 383L469 387L484 472C472 479 463 482 454 482C414 482 374 446 312 354L275 299L269 347C257 446 230 482 171 482C145 482 123 474 114 461L56 378L73 368C103 402 123 416 142 416C175 416 197 375 214 277L225 215L185 153C142 86 108 54 80 54C65 54 54 58 52 63L41 91L21 88C21 53 13 27 9 1Z" stroke="rgb(74,144,226)" stroke-opacity="1" stroke-width="8" fill="rgb(74,144,226)" fill-opacity="1"></path></g></g><g><g transform="matrix(1,0,0,1,34.5,38.390625)"><path transform="matrix(0.017,0,0,-0.017,0,0)" d="M51 726L32 700C87 636 187 526 187 266C187 -10 83 -131 32 -194L51 -215C104 -165 273 -23 273 265C273 542 108 675 51 726Z" stroke="rgb(74,144,226)" stroke-opacity="1" stroke-width="8" fill="rgb(74,144,226)" fill-opacity="1"></path></g></g><g><g transform="matrix(1,0,0,1,45.25,38.390625)"><path transform="matrix(0.017,0,0,-0.017,0,0)" d="M604 347L604 406L65 406L65 347ZM604 134L604 193L65 193L65 134Z" stroke="rgb(74,144,226)" stroke-opacity="1" stroke-width="8" fill="rgb(74,144,226)" fill-opacity="1"></path></g></g><g><g><g><g><g transform="matrix(1,0,0,1,76.171875,26)"><path transform="matrix(0.017,0,0,-0.017,0,0)" d="M9 1C24 -7 40 -11 52 -11C85 -11 124 18 155 65L231 182L242 113C255 28 278 -11 314 -11C336 -11 368 6 400 35L449 79L440 98C404 68 379 53 363 53C348 53 335 63 325 83C316 102 305 139 300 168L282 269L317 318C364 383 391 406 422 406C438 406 450 398 455 383L469 387L484 472C472 479 463 482 454 482C414 482 374 446 312 354L275 299L269 347C257 446 230 482 171 482C145 482 123 474 114 461L56 378L73 368C103 402 123 416 142 416C175 416 197 375 214 277L225 215L185 153C142 86 108 54 80 54C65 54 54 58 52 63L41 91L21 88C21 53 13 27 9 1Z" stroke="rgb(74,144,226)" stroke-opacity="1" stroke-width="8" fill="rgb(74,144,226)" fill-opacity="1"></path></g></g></g></g><g><g><g><g transform="matrix(1,0,0,1,63.390625,51.78125)"><path transform="matrix(0.017,0,0,-0.017,0,0)" d="M280 181L280 106C280 46 269 32 220 30L158 27L158 -3C291 0 291 0 315 0C339 0 339 0 472 -3L472 27L424 30C375 33 364 46 364 106L364 181C423 181 444 180 472 177L472 248L364 245L365 697L285 667L2 204L2 181ZM280 245L65 245L280 597Z" stroke="rgb(74,144,226)" stroke-opacity="1" stroke-width="8" fill="rgb(74,144,226)" fill-opacity="1"></path></g></g><g><g transform="matrix(1,0,0,1,75.265625,51.78125)"><path transform="matrix(0.017,0,0,-0.017,0,0)" d="M555 243L555 299L51 299L51 243Z" stroke="rgb(74,144,226)" stroke-opacity="1" stroke-width="8" fill="rgb(74,144,226)" fill-opacity="1"></path></g></g><g><g transform="matrix(1,0,0,1,88.953125,51.78125)"><path transform="matrix(0.017,0,0,-0.017,0,0)" d="M9 1C24 -7 40 -11 52 -11C85 -11 124 18 155 65L231 182L242 113C255 28 278 -11 314 -11C336 -11 368 6 400 35L449 79L440 98C404 68 379 53 363 53C348 53 335 63 325 83C316 102 305 139 300 168L282 269L317 318C364 383 391 406 422 406C438 406 450 398 455 383L469 387L484 472C472 479 463 482 454 482C414 482 374 446 312 354L275 299L269 347C257 446 230 482 171 482C145 482 123 474 114 461L56 378L73 368C103 402 123 416 142 416C175 416 197 375 214 277L225 215L185 153C142 86 108 54 80 54C65 54 54 58 52 63L41 91L21 88C21 53 13 27 9 1Z" stroke="rgb(74,144,226)" stroke-opacity="1" stroke-width="8" fill="rgb(74,144,226)" fill-opacity="1"></path></g></g></g></g><line style="fill:none;stroke-width:1px;stroke:rgb(74, 144, 226);" x1="63.390625" y1="34.140625" x2="97.4375" y2="34.140625"></line></g></g></g></svg>
</svg>
